<?xml version="1.0" encoding="UTF-8"?> <!-- Generator: Adobe Illustrator 16.0.0, SVG Export Plug-In . SVG Version: 6.00 Build 0) --> <svg xmlns="http://www.w3.org/2000/svg" xmlns:xlink="http://www.w3.org/1999/xlink" version="1.1" id="Layer_1" x="0px" y="0px" width="201.911px" height="63.975px" viewBox="0 0 201.911 63.975" xml:space="preserve"> <g> <path fill="#FFFFFF" d="M114.334,27.002c4.029,0.026-0.861,8.104-2.36,14.072c-0.832,3.308,0.339,6.533,4.128,6.533 c3.259,0,4.387-1.087,5.292-2.146c0.35-0.433,0.648-0.957,0.551-1.18c-0.115-0.247-0.774-0.178-1.033-0.178 c-1.229,0.021-2.141-0.747-1.02-4.34c1.344-4.301,4.02-10.003,4.615-12.231c0.52-1.924,0.945-4.883-1.934-5.653 c-2.691-0.715-9.563,0.347-13.334,5.526c0,0,1.171-3.61,2.202-5.832c0.056-0.112,0.105-0.215,0.142-0.299 c0.131-0.289,0.171-0.447,0.066-0.617c-0.124-0.2-0.61-0.25-0.941-0.252c-0.18-0.004-0.32,0.002-0.32,0.002 c-1.391,0.037-3.381,0.223-4.82,0.905c-1.889,0.895-2.306,2.294-2.65,3.207c-1.203,3.183-3.729,10.268-4.656,12.831v0.005 c-0.467,1.22-9.615,9.717-6.92,1.797c0.478-1.391,1.842-5.591,3.354-10.052c0.124-0.387,0.234-0.723,0.181-0.87 c-0.037-0.112-0.837-0.544-0.869-0.552c-2.234-1.043-4.092-0.793-5.286-0.51c-0.216,0.057-0.779,0.205-0.86,0.301 c-0.094,0.113-0.435,1.168-0.487,1.33c-0.145,0.461-0.262,0.824-0.262,0.808c-3.218,9.592-6.967,11.84-9.207,11.84 c-5.256,0,1.481-14.294,7.164-16.537c2.256-0.896,6.98-0.687,9.521,1.55c0.128,0.116,0.416,0.418,0.606,0.319 c0.271-0.139,0.122-0.735,0.079-0.909C94.319,22.06,89,19.192,81.336,20.966c-7.761,1.786-12.659,11.233-13.425,17.388 c-0.431,3.452-0.395,9.299,5.494,9.299c4.196,0,8.423-4.138,10.3-6.749c-1.642,4.172-0.246,6.804,3.62,6.804 c3.76,0,6.33-2.323,9.425-5.321c-0.092,0.332-0.177,0.633-0.244,0.887c-0.572,2.533-0.253,4.335,2.411,4.335 c2.834,0,4.173-2.437,4.872-4.492c0.681-2.015,2.21-5.875,2.045-5.44C106.94,34.801,111.069,26.981,114.334,27.002"></path> <path fill="#FFFFFF" d="M24.654,33.373c-0.76,2.832-1.201,7.745-1.353,9.604c-0.328,3.974,3.786,4.634,5.882,4.715 c0.071,0.007,0.145,0.009,0.222,0.009c0.125,0.004,0.231,0.006,0.335,0.004c0.17-0.006,0.317-0.041,0.391-0.152 c0.145-0.201,0.071-0.566,0.071-0.566h0.006c-0.347-2.332,0.448-9.5,1.992-14.647C28.975,32.03,26.355,32.702,24.654,33.373"></path> <path fill="#FFFFFF" d="M44.667,13.67c6.115,0-0.821,10.566-10.296,12.496C37.105,19.467,40.843,13.67,44.667,13.67 M68.398,25.562 C71.241,10.128,61.092,0,43.242,0c-17.9,0-30.695,9.349-30.695,18.153c0,5.441,3.061,9.32,9.507,11.406 c1.233,0.337,2.397,0.601,3.495,0.808c2.688,0.515,4.969,0.692,6.819,0.703h0.224c12.818-0.154,19.834-8.541,18.657-14.612 c-0.91-4.672-5.629-5.6-7.251-5.592c-7.997,0.033-14.069,7.175-17.384,14.892c-3.455-0.934-6.035-3.877-6.035-8.314 c0-7.338,7.205-13.798,19.133-13.798c12.299,0,20.392,6.941,20.392,17.825c0,12.59-10.524,32.071-35.165,32.071 c-9.324,0-16.523-3.402-16.523-11.637c0-3.597,1.11-5.87,2.56-7.283h-0.003c0.185-0.188,0.675-0.576,0.646-0.74 c-0.027-0.168-0.175-0.279-0.853-0.527c-3.42-1.05-9.013,0.722-10.415,6.536c-2.357,9.797,7.301,16.985,24.323,16.985 C50.367,56.875,65.117,43.331,68.398,25.562"></path> <path fill="#FFFFFF" d="M201.761,44.784c-1.541-0.094-1.918-0.16-1.918-0.16c-2.252-0.287-4.688-1.422-4.688-4.989 c0-6.096,8.557-13.787,4.642-16.628c-3.291-2.387-5.504,2.684-12.114,1.862c0,0,0.841-6.868-4.396-5.38 c-1.905,0.549-2.21,3.221-1.948,4.473c1.151,5.405,8.879,4.631,11.741,3.903c-4.229,4.473-12.724,19.931,0.34,19.931 c2.857,0,5.344-0.789,7.138-1.592C201.862,45.597,202.125,44.801,201.761,44.784"></path> <path fill="#FFFFFF" d="M152.538,29.965c-0.085-2.082-0.829-8.413-6.721-8.413c-3.295,0-6.806,3.305-9.051,5.839 c0,0,1.075-3.357,2.032-5.486c0.114-0.263,0.232-0.502,0.341-0.72c0.092-0.229,0.114-0.367,0.025-0.524 c-0.036-0.054-0.153-0.291-1.167-0.252c-1.688,0.065-3.432,0.311-5.078,0.996c-2.02,0.86-2.669,3.588-4.02,7.39 c-1.701,4.805-5.841,18.22-8.737,26.098c-1.025,2.787-2.166,5.063-3.32,6.879v0.005c-0.017,0.018-0.023,0.036-0.033,0.05 c-0.055,0.086-0.11,0.174-0.17,0.261c-0.269,0.482-0.341,1.062,0.219,1.304c6.152,2.4,8.414-3.369,8.414-3.369l0.003,0.004 c0.101-0.229,0.206-0.456,0.301-0.676c2.21-5.029,3.42-10.007,6.391-17.997c5.451-14.683,9.51-14.489,10.575-14.489 c5.482,0-1.56,17.477-8.501,17.08c-0.311-0.017-0.703-0.126-0.855,0.034c-0.115,0.123-0.075,0.427,0.112,0.74 c0.597,1.137,2.505,2.842,5.831,2.842C149.179,47.56,152.696,34.407,152.538,29.965"></path> <path fill="#FFFFFF" d="M171.4,24.584c4.215,0,1.259,9.167-9.715,9.797C163.145,30.363,166.722,24.584,171.4,24.584 M181.871,31.07 c-1.623,3.295-4.445,7.037-8.59,9.244c-1.107,0.566-2.2,0.996-3.239,1.3c-0.186,0.047-0.37,0.105-0.557,0.151 c-0.014,0.002-0.023,0.006-0.039,0.006c-0.935,0.226-1.912,0.375-2.945,0.429c-0.088,0.006-0.174,0.006-0.262,0.006 c-3.76,0.005-5.338-2.315-4.928-5.199l0.007-0.021c13.511-0.229,17.904-8.45,17.904-11.04c0-2.632-1.584-5.534-6.99-5.534 c-12.479,0-18.982,12.025-18.982,18.612c0,4.265,1.954,8.537,9.704,8.537h0.151h0.039c0.846,0,1.669-0.043,2.466-0.125 c5.815-0.58,9.979-3.053,13.044-6.104c3.574-3.35,6.16-7.629,7.8-11.812C186.117,29.466,183.868,29.192,181.871,31.07"></path> <path fill="#FFFFFF" d="M128.862,30.585c-0.007,0.013-0.01,0.021-0.014,0.029C128.853,30.606,128.855,30.598,128.862,30.585"></path> </g> </svg> 